<svg id="Layer_1" data-name="Layer 1" xmlns="http://www.w3.org/2000/svg" viewBox="0 0 2061 432"><defs><style>.cls-1{font-size:345.21564px;font-family:Gontserrat-Medium, Montserrat;font-weight:500;}.cls-1,.cls-3,.cls-4{fill:#fff;}.cls-2{font-family:Montserrat-Regular, Montserrat;font-weight:400;}.cls-3{font-size:196.38809px;font-family:Montserrat-Bold, Montserrat;font-weight:700;}</style></defs><title>small banner </title><text class="cls-1" transform="translate(-18.42578 431.48828)">&amp; DESIGN<tspan class="cls-2" x="1663.57813" y="0"> </tspan></text><text class="cls-3" transform="translate(-15.88184 142.05078)">PROGRAMMING</text><polygon class="cls-4" points="1868.073 0.923 1868.073 198.395 1818.705 198.395 1818.705 124.354 1744.643 124.354 1744.643 198.395 1695.275 198.395 1695.275 0.923 1744.643 0.923 1744.643 74.986 1818.705 74.986 1818.705 0.923 1868.073 0.923"/><path class="cls-4" d="M1891.26915.92344V198.395h172.77742V.92344Zm123.40954,148.10364H1940.637V50.29132h74.04166Z"/><polygon class="cls-4" points="1868.073 231.578 1868.073 280.946 1744.643 280.946 1744.643 305.64 1868.073 305.64 1868.073 429.049 1695.275 429.049 1695.275 379.681 1818.705 379.681 1818.705 355.008 1695.275 355.008 1695.275 231.578 1868.073 231.578"/><polygon class="cls-4" points="2064.047 231.578 2064.047 280.946 2002.342 280.946 2002.342 429.049 1952.974 429.049 1952.974 280.946 1891.269 280.946 1891.269 231.578 2064.047 231.578"/></svg>